<svg xmlns="http://www.w3.org/2000/svg" width="512pt" height="512pt" version="1.1" viewBox="0 0 512 512"><g id="#000000ff"><path fill="#000" d="M 13.66 0.00 L 498.14 0.00 C 505.08 1.14 510.71 6.79 512.00 13.68 L 512.00 385.60 C 511.13 393.44 504.08 400.12 496.10 399.97 C 482.45 400.06 468.81 399.96 455.16 400.01 C 453.02 404.38 450.76 408.70 448.13 412.80 C 462.96 427.65 477.79 442.50 492.65 457.31 C 494.48 459.09 496.13 461.37 495.99 464.06 C 496.06 468.26 492.33 472.05 488.10 471.94 C 477.41 472.10 466.70 471.94 456.00 472.00 C 455.94 482.70 456.11 493.40 455.94 504.09 C 456.08 507.94 453.03 510.96 449.53 512.00 L 446.61 512.00 C 444.85 511.35 443.15 510.48 441.83 509.14 C 423.50 490.79 405.17 472.44 386.80 454.14 C 374.41 456.57 361.59 456.57 349.20 454.15 C 332.32 470.95 315.51 487.83 298.66 504.66 C 295.86 507.38 293.36 510.67 289.54 512.00 L 286.62 512.00 C 283.01 511.08 279.91 507.97 280.05 504.08 C 279.90 493.39 280.06 482.69 280.00 472.00 C 269.32 471.94 258.63 472.10 247.95 471.95 C 243.68 472.09 239.91 468.25 240.00 464.01 C 239.90 461.61 241.19 459.48 242.84 457.85 C 257.85 442.84 272.88 427.84 287.87 412.81 C 285.24 408.70 282.97 404.39 280.84 400.00 C 192.55 399.98 104.25 400.04 15.96 399.97 C 8.16 400.16 1.39 393.83 0.00 386.33 L 0.00 13.83 C 1.17 6.89 6.75 1.29 13.66 0.00 M 16.00 16.00 C 16.00 138.67 16.00 261.33 16.00 384.00 C 102.38 384.00 188.76 384.00 275.14 384.00 C 273.67 378.77 273.21 373.34 272.19 368.05 C 207.46 367.94 142.73 368.02 77.99 368.01 C 74.06 367.87 69.32 368.82 66.31 365.61 C 63.85 363.37 64.10 359.86 63.72 356.86 C 62.61 346.37 53.58 337.32 43.07 336.27 C 40.52 335.86 37.65 336.19 35.46 334.57 C 32.98 332.96 31.85 329.94 32.00 327.07 C 32.00 242.41 32.00 157.74 32.00 73.07 C 31.45 68.47 35.20 63.91 39.93 64.05 C 49.15 64.01 58.07 58.42 61.80 49.95 C 63.72 46.25 63.76 42.03 64.31 38.00 C 65.10 34.10 69.17 31.64 73.01 32.00 C 195.03 32.00 317.06 32.00 439.08 32.00 C 444.17 31.42 448.51 36.04 448.06 41.05 C 448.28 53.10 458.92 63.71 470.96 63.94 C 476.00 63.48 480.61 67.88 480.00 72.99 C 480.00 157.68 480.00 242.37 480.00 327.05 C 480.39 331.18 477.37 335.50 473.11 335.83 C 469.10 336.13 465.08 336.65 461.45 338.49 C 465.04 353.41 464.69 369.15 460.85 383.99 C 472.57 384.01 484.28 384.00 496.00 384.00 C 496.00 261.33 496.00 138.67 496.00 16.00 C 336.00 16.00 176.00 16.00 16.00 16.00 M 79.23 48.01 C 76.13 63.39 63.41 76.15 48.02 79.22 C 47.98 159.74 48.00 240.25 48.01 320.77 C 63.40 323.84 76.14 336.60 79.22 351.99 C 143.63 351.97 208.04 352.10 272.45 351.92 C 273.70 335.93 279.19 320.32 288.08 306.97 C 300.22 288.61 318.83 274.63 339.90 268.21 C 362.45 261.23 387.58 263.06 408.90 273.20 C 430.16 283.20 447.50 301.29 456.50 323.01 C 458.97 322.21 461.46 321.45 463.97 320.77 C 464.03 240.26 464.00 159.74 463.99 79.23 C 448.62 76.13 435.83 63.41 432.77 48.01 C 314.92 47.99 197.07 47.99 79.23 48.01 M 357.50 280.69 C 330.05 284.08 305.28 302.95 294.52 328.39 C 286.07 347.77 285.85 370.55 293.89 390.10 C 300.86 407.31 314.05 421.88 330.43 430.59 C 344.30 438.04 360.42 441.20 376.07 439.57 C 392.12 438.00 407.60 431.34 419.85 420.85 C 431.74 410.73 440.60 397.07 444.88 382.04 C 449.59 365.74 448.92 347.93 442.94 332.04 C 436.88 315.75 425.33 301.58 410.62 292.33 C 395.01 282.35 375.84 278.25 357.50 280.69 M 267.33 455.99 C 273.13 455.99 278.94 456.02 284.75 455.98 C 287.95 453.19 290.40 448.83 294.90 448.08 C 299.94 447.20 304.83 452.10 303.90 457.14 C 303.12 461.61 298.82 464.08 296.03 467.25 C 295.98 473.06 296.00 478.86 296.01 484.67 C 307.97 472.76 319.88 460.81 331.80 448.87 C 319.01 443.54 307.41 435.49 297.92 425.41 C 287.71 435.59 277.52 445.79 267.33 455.99 M 404.19 448.87 C 416.12 460.81 428.06 472.74 440.00 484.67 C 439.99 478.85 440.04 473.03 439.96 467.21 C 437.14 464.06 432.83 461.57 432.09 457.09 C 431.20 452.06 436.09 447.17 441.13 448.09 C 445.60 448.86 448.08 453.17 451.25 455.98 C 457.05 456.02 462.86 455.99 468.67 455.99 C 458.49 445.78 448.29 435.59 438.09 425.41 C 428.58 435.47 417.01 443.59 404.19 448.87 Z" opacity="1"/><path fill="#000" d="M 197.31 88.47 C 198.82 87.98 200.44 88.02 202.02 87.98 C 238.70 88.06 275.38 87.93 312.06 88.04 C 316.72 87.89 320.69 92.51 319.90 97.09 C 319.43 101.38 315.16 104.44 310.95 104.00 C 274.29 104.00 237.63 104.00 200.97 104.00 C 197.56 104.26 194.00 102.44 192.68 99.20 C 190.77 95.15 193.05 89.85 197.31 88.47 Z" opacity="1"/><path fill="#000" d="M 165.38 120.45 C 168.16 119.71 171.09 120.06 173.93 119.99 C 230.32 120.01 286.72 119.99 343.11 120.00 C 346.19 119.81 349.42 121.23 350.92 124.02 C 352.98 127.43 351.92 132.27 348.62 134.50 C 346.74 135.95 344.29 136.01 342.03 136.02 C 284.35 135.98 226.67 136.01 168.99 136.00 C 164.81 136.42 160.56 133.37 160.09 129.11 C 159.50 125.44 161.84 121.59 165.38 120.45 Z" opacity="1"/><path fill="#000" d="M 109.10 152.27 C 112.03 151.85 115.00 152.01 117.95 151.99 C 211.97 152.02 305.99 151.97 400.00 152.02 C 408.51 151.79 416.18 159.46 415.98 167.96 C 416.02 178.64 416.02 189.32 415.98 200.00 C 416.13 207.40 410.39 214.32 403.15 215.66 C 399.81 216.22 396.42 215.96 393.06 216.00 C 301.68 216.00 210.30 216.00 118.92 216.00 C 115.54 215.96 112.12 216.22 108.76 215.65 C 101.57 214.26 95.85 207.37 96.02 200.00 C 95.99 189.31 95.98 178.61 96.02 167.91 C 95.90 160.44 101.75 153.52 109.10 152.27 M 112.00 168.00 C 112.00 178.67 112.00 189.33 112.00 200.00 C 208.00 200.00 304.00 200.00 400.00 200.00 C 400.00 189.33 400.00 178.67 400.00 168.00 C 304.00 168.00 208.00 168.00 112.00 168.00 Z" opacity="1"/><path fill="#000" d="M 101.36 248.46 C 103.19 247.89 105.15 248.02 107.05 247.98 C 138.04 248.06 169.04 247.93 200.03 248.04 C 204.32 247.90 208.14 251.79 207.98 256.08 C 208.04 260.30 204.26 264.08 200.02 263.96 C 168.35 264.06 136.66 263.97 104.99 264.00 C 101.38 264.30 97.63 262.20 96.48 258.69 C 94.93 254.68 97.27 249.76 101.36 248.46 Z" opacity="1"/><path fill="#000" d="M 229.36 248.46 C 233.57 246.84 238.69 249.58 239.71 253.96 C 240.92 258.07 238.16 262.75 234.00 263.72 C 229.89 264.91 225.23 262.14 224.27 257.99 C 223.17 254.11 225.53 249.70 229.36 248.46 Z" opacity="1"/><path fill="#000" d="M 101.30 280.48 C 103.15 279.89 105.12 280.02 107.04 279.98 C 127.39 280.06 147.75 279.92 168.10 280.05 C 172.36 279.94 176.13 283.81 175.98 288.06 C 176.05 292.30 172.25 296.09 168.00 295.96 C 146.97 296.06 125.94 295.97 104.92 296.00 C 101.54 296.24 98.02 294.43 96.70 291.23 C 94.76 287.18 97.03 281.86 101.30 280.48 Z" opacity="1"/><path fill="#000" d="M 197.33 280.47 C 201.34 278.93 206.24 281.30 207.54 285.39 C 209.04 289.38 206.67 294.23 202.62 295.53 C 198.64 297.05 193.78 294.69 192.47 290.65 C 190.95 286.66 193.27 281.79 197.33 280.47 Z" opacity="1"/><path fill="#000" d="M 358.54 296.70 C 370.84 294.88 383.68 296.67 394.95 301.96 C 410.10 309.04 422.32 322.22 428.06 337.94 C 433.27 351.98 433.29 367.87 428.10 381.92 C 423.72 394.01 415.51 404.63 405.06 412.10 C 392.44 421.25 376.34 425.36 360.87 423.59 C 346.09 422.01 332.05 414.93 321.82 404.19 C 312.17 394.15 305.84 380.92 304.40 367.05 C 302.80 352.81 306.10 338.03 313.87 325.97 C 323.62 310.40 340.32 299.32 358.54 296.70 M 359.51 312.79 C 342.68 315.67 328.02 328.28 322.61 344.46 C 318.00 357.75 319.65 373.04 327.08 385.00 C 334.68 397.54 348.30 406.23 362.91 407.69 C 376.88 409.29 391.39 404.25 401.41 394.39 C 411.87 384.33 417.33 369.37 415.69 354.94 C 414.29 340.76 406.10 327.50 394.14 319.79 C 384.05 313.12 371.39 310.62 359.51 312.79 Z" opacity="1"/></g></svg>