<svg xmlns="http://www.w3.org/2000/svg" width="150" height="103" fill="none" viewBox="0 0 150 103"><path fill="#00AC6E" d="M2.65967 99.9516H147.341V2.65974H2.65967V99.9516Z"/><path fill="#D97931" d="M5.31932 97.2925H144.682V5.31948H5.31932V97.2925ZM147.341 102.611H2.65959C1.19077 102.611 0 101.421 0 99.9516V2.65974C0 1.19077 1.19077 0 2.65959 0H147.341C148.81 0 150 1.19077 150 2.65974V99.9516C150 101.421 148.81 102.611 147.341 102.611Z"/><path fill="#ECA537" d="M139.909 85.9878C139.909 85.2531 139.314 84.6576 138.579 84.6576H106.665C105.93 84.6576 105.335 85.2531 105.335 85.9878V92.6362H139.909V85.9878Z"/><path fill="#FDFAEA" d="M105.335 92.6362V96.5171C105.335 97.2519 105.93 97.8472 106.665 97.8472H138.579C139.314 97.8472 139.909 97.2519 139.909 96.5171V92.6362H105.335Z"/><path fill="#FEFEFE" d="M41.8878 46.126C42.2175 42.8367 42.8968 37.5633 44.1858 37.3037C45.1943 37.1008 47.3703 41.0613 49.4271 45.3608C46.9338 45.8098 44.4244 46.0593 41.8878 46.126V46.126ZM56.3623 53.9841C55.3624 51.7804 54.3257 49.5947 53.263 47.4219C53.3117 47.4105 53.3606 47.4007 53.4082 47.3882C55.1689 46.9506 54.4233 44.2308 52.6589 44.6695C52.4306 44.7263 52.2012 44.7746 51.9724 44.8278C50.9134 42.7298 49.8289 40.6439 48.6988 38.5811C47.6946 36.749 46.3438 32.9478 43.5399 33.8517C40.621 34.7926 40.0869 39.9221 39.7057 42.3134C39.5019 43.5931 39.3185 44.876 39.1467 46.1601C37.8214 46.3695 37.7125 48.2868 38.823 48.8214C38.4353 52.1361 38.1333 55.4606 37.9197 58.7926C37.803 60.6048 40.6238 60.5978 40.7392 58.7926C40.9501 55.5056 41.2294 52.2261 41.6166 48.9548C44.6603 48.8945 47.6697 48.5708 50.6543 47.9912C52.1855 51.3434 53.4837 54.4287 53.9277 55.4069C54.6766 57.0576 57.1075 55.6255 56.3623 53.9841V53.9841Z"/><path fill="#FEFEFE" d="M79.9168 53.9499C79.1006 54.9168 76.7229 55.3945 75.5495 55.3636C73.3345 55.3055 73.2298 55.0496 72.8849 52.9977C72.4404 50.3543 72.476 47.4506 72.6034 44.5523C73.8914 44.5187 76.872 44.3039 78.1214 44.9303C79.2053 45.37 80.2193 47.2408 80.9904 48.1501C81.7046 49.1603 82.7619 51.3336 79.9168 53.9499V53.9499ZM79.6678 39.6857C78.7525 41.8031 75.177 42.416 73.2173 42.231C72.8329 42.2212 72.8952 38.8842 72.8963 37.1752C72.8963 37.1246 72.8866 37.0808 72.8827 37.033C73.0411 37.0385 73.2109 37.019 73.3947 36.9555C74.5697 36.5471 81.3916 35.7002 79.6678 39.6857V39.6857ZM79.8701 44.1235C81.6774 43.1799 82.8372 41.4914 82.3687 38.7205C81.5793 34.0555 76.5689 32.8735 72.6448 34.2362C71.879 34.5019 70.0773 36.1762 70.0767 37.1752C70.0739 40.8672 70.0713 44.5588 70.0685 48.251C70.067 50.4948 69.3473 54.2926 70.4102 56.3635C71.9914 59.4439 77.4208 58.3194 79.8722 57.1736C87.6486 53.5405 85.1141 47.2543 79.8701 44.1235V44.1235Z"/><path fill="#FEFEFE" d="M115.081 39.2459C112.956 35.4919 108.806 33.3013 104.481 33.7801C99.534 34.3278 96.1649 38.5296 95.2155 43.1972C94.3186 47.604 95.4308 52.9343 99.2803 55.6742C102.681 58.0954 107.601 57.7087 110.282 54.4483C111.426 53.0569 109.442 51.0506 108.289 52.4539C106.219 54.971 102.546 55.042 100.204 52.783C97.6453 50.3152 97.2452 46.1835 98.18 42.9235C100.148 36.058 108.888 34.0306 112.646 40.6694C113.54 42.2483 115.977 40.8288 115.081 39.2459V39.2459Z"/></svg>