<svg width="150" height="120" viewBox="0 0 150 120" fill="none" xmlns="http://www.w3.org/2000/svg">
<path d="M37.4777 75.234C31.2324 77.7004 23.8593 75.317 21.0107 69.9105C18.1613 64.5044 20.9141 58.1225 27.16 55.6562C33.4053 53.1906 40.7776 55.5731 43.627 60.9799C46.4758 66.3849 43.723 72.7679 37.4777 75.234ZM103.536 13.8402C61.706 -0.884524 33.4489 6.6246 23.9933 17.8053C17.7302 25.2098 24.771 29.1692 32.0647 30.7576C37.4834 31.9384 49.6882 32.1339 48.3971 38.8274C46.6347 47.9658 31.0914 41.8896 26.6221 41.1204C18.7478 39.7663 10.64 39.1583 5.89931 43.6392C-1.53125 50.6605 -7.212 71.8848 23.1068 99.3313C53.4263 126.777 104.906 123.97 132.757 101.29C160.61 78.6106 145.367 28.5655 103.536 13.8402Z" fill="#ECA537"/>
<path d="M72.4644 89.7912C74.9307 95.198 72.5474 101.58 67.1409 104.045C61.7348 106.512 55.3529 104.128 52.8865 98.7233C50.4204 93.3166 52.8035 86.9347 58.2094 84.4684C63.6153 82.002 69.9974 84.3853 72.4644 89.7912Z" fill="#EB6637"/>
<path d="M112.79 87.4581C115.257 92.8648 112.874 99.2469 107.468 101.713C102.061 104.179 95.6798 101.797 93.2128 96.3902C90.7464 90.9837 93.1297 84.6024 98.5357 82.136C103.942 79.669 110.324 82.0522 112.79 87.4581V87.4581Z" fill="#FDCF02"/>
<path d="M134.314 57.9155C136.781 63.3222 134.398 69.7043 128.992 72.1704C123.586 74.6368 117.203 72.2537 114.737 66.8476C112.271 61.441 114.654 55.0589 120.06 52.5934C125.466 50.1264 131.849 52.5096 134.314 57.9155Z" fill="#00AC6E"/>
<path d="M89.6279 25.9252C92.0943 31.3313 89.711 37.7132 84.3042 40.1802C78.8983 42.6465 72.5164 40.2634 70.0501 34.8567C67.5837 29.4508 69.9662 23.0687 75.3729 20.6025C80.7789 18.1353 87.161 20.5193 89.6279 25.9252V25.9252Z" fill="#0086CB"/>
<path d="M71.1081 69.5711C70.4778 71.5698 69.4631 73.2841 68.7985 74.2801C68.5443 74.6597 68.8423 75.1624 69.297 75.1216C72.4428 74.8388 81.2174 73.6643 86.1428 69.1556C87.2808 68.1136 88.2004 67.0654 88.9429 66.0678C90.8835 63.4582 91.1305 59.8662 89.2673 57.2001C87.0451 54.0249 82.9061 53.2586 79.5575 54.9909C73.5785 58.0852 71.9832 66.7925 71.1081 69.5711Z" fill="#ECE0B8"/>
<path d="M85.5239 54.4303L90.3598 59.7124C123.115 35.3071 145.297 12.564 148.273 7.90569C151.248 3.24659 149.476 0.735973 149.476 0.735973C149.476 0.735973 147.13 -1.25052 142.229 1.30374C137.326 3.85739 112.718 23.9509 85.5239 54.4303V54.4303Z" fill="#D97931"/>
<path d="M90.3598 59.7123C95.851 55.6204 101.037 51.5794 105.893 47.6586L98.8989 40.0184C94.5657 44.5112 90.0827 49.3199 85.5239 54.4303L90.3598 59.7123Z" fill="#FEFEFE"/>
<path d="M74.9486 62.778C74.5446 62.8868 73.9604 62.8324 73.298 62.6899C72.1241 65.4993 71.5312 68.2283 71.1081 69.5711C70.4778 71.5698 69.4631 73.2841 68.7985 74.2802C68.5443 74.6598 68.8423 75.1624 69.297 75.1216C71.83 74.8938 78.0107 74.0847 82.8945 71.4251C82.0919 70.4318 81.2367 69.034 81.0241 67.4105C80.5966 64.1601 76.8413 62.268 74.9486 62.778V62.778Z" fill="#0086CB"/>
</svg>
