<svg xmlns="http://www.w3.org/2000/svg" width="32" height="32" fill="none" viewBox="0 0 32 32"><path fill="#563D7C" d="M0 27.8739C0 30.1529 1.84737 32 4.12612 32H27.8738C30.1529 32 32 30.1526 32 27.8739V4.12625C32 1.84712 30.1526 0 27.8739 0H4.12625C1.84712 0 0 1.84737 0 4.12612V27.8738V27.8739Z"/><path fill="#fff" d="M13.2698 14.1547V9.62313H17.2586C17.6386 9.62313 18.0049 9.65475 18.3576 9.71813C18.7104 9.78138 19.0225 9.89438 19.2939 10.0573C19.5651 10.2201 19.7823 10.4463 19.9452 10.7356C20.1079 11.0251 20.1894 11.396 20.1894 11.8481C20.1894 12.6623 19.9451 13.2503 19.4566 13.612C18.9683 13.9739 18.3441 14.1547 17.5843 14.1547H13.2698V14.1547ZM9.0094 6.3125V25.6875H18.3984C19.2668 25.6875 20.1125 25.579 20.9356 25.3619C21.7588 25.1448 22.4914 24.8101 23.1336 24.3579C23.7758 23.9056 24.2869 23.3221 24.6668 22.6076C25.0468 21.893 25.2367 21.0473 25.2367 20.0704C25.2367 18.8583 24.9426 17.8226 24.3548 16.9634C23.7668 16.104 22.8758 15.5025 21.6818 15.1587C22.5501 14.7427 23.206 14.209 23.6493 13.5577C24.0924 12.9065 24.314 12.0925 24.314 11.1155C24.314 10.211 24.1648 9.45125 23.8663 8.83613C23.5678 8.22113 23.1472 7.72813 22.6044 7.35725C22.0618 6.98638 21.4105 6.7195 20.6507 6.55675C19.8909 6.39387 19.0497 6.3125 18.127 6.3125H9.0094V6.3125ZM13.2698 22.3769V17.0583H17.9099C18.8325 17.0583 19.5743 17.2707 20.1351 17.696C20.6959 18.1211 20.9764 18.8311 20.9764 19.8261C20.9764 20.3327 20.8904 20.7488 20.7185 21.0744C20.5466 21.4 20.316 21.6579 20.0265 21.8477C19.7372 22.0377 19.4024 22.1734 19.0225 22.2549C18.6425 22.3361 18.2447 22.3769 17.8285 22.3769H13.2698V22.3769Z"/></svg>