<svg xmlns="http://www.w3.org/2000/svg" width="22" height="32" fill="none" viewBox="0 0 22 32"><g clip-path="url(#clip0_101_55)"><path fill="#0ACF83" d="M5.33333 32C8.27733 32 10.6667 29.6107 10.6667 26.6667V21.3333H5.33333C2.38933 21.3333 0 23.7227 0 26.6667C0 29.6107 2.38933 32 5.33333 32Z"/><path fill="#A259FF" d="M0 16C0 13.056 2.38933 10.6667 5.33333 10.6667H10.6667V21.3333H5.33333C2.38933 21.3333 0 18.944 0 16Z"/><path fill="#F24E1E" d="M0 5.33333C0 2.38933 2.38933 0 5.33333 0H10.6667V10.6667H5.33333C2.38933 10.6667 0 8.27733 0 5.33333Z"/><path fill="#FF7262" d="M10.6667 0H16C18.944 0 21.3334 2.38933 21.3334 5.33333C21.3334 8.27733 18.944 10.6667 16 10.6667H10.6667V0Z"/><path fill="#1ABCFE" d="M21.3334 16C21.3334 18.944 18.944 21.3333 16 21.3333C13.056 21.3333 10.6667 18.944 10.6667 16C10.6667 13.056 13.056 10.6667 16 10.6667C18.944 10.6667 21.3334 13.056 21.3334 16Z"/></g><defs><clipPath id="clip0_101_55"><rect width="21.333" height="32" fill="#fff"/></clipPath></defs></svg>