<svg xmlns="http://www.w3.org/2000/svg" width="32" height="32" fill="none" viewBox="0 0 32 32"><path fill="#1572B6" d="M5.90201 27.201L3.65601 2H28.344L26.095 27.197L15.985 30L5.90201 27.201Z"/><path fill="#33A9DC" d="M16 27.858L24.17 25.593L26.092 4.061H16V27.858Z"/><path fill="#fff" d="M16 13.191H20.09L20.372 10.026H16V6.935H23.75L23.676 7.764L22.917 16.282H16V13.191V13.191Z"/><path fill="#EBEBEB" d="M16.019 21.218L16.005 21.222L12.563 20.292L12.343 17.827H9.23999L9.67299 22.68L16.004 24.438L16.019 24.434V21.218V21.218Z"/><path fill="#fff" d="M19.8271 16.151L19.4551 20.29L16.0081 21.22V24.436L22.3441 22.68L22.3911 22.158L22.9281 16.151H19.8271V16.151Z"/><path fill="#EBEBEB" d="M16.0109 6.935V10.026H8.54494L8.48294 9.331L8.34194 7.764L8.26794 6.935H16.0109V6.935ZM15.9999 13.191V16.282H12.6009L12.5389 15.587L12.3989 14.02L12.3249 13.191H15.9999V13.191Z"/></svg>