<svg width="32" height="32" viewBox="0 0 32 32" fill="none" xmlns="http://www.w3.org/2000/svg">
<path d="M29.01 5.03L23.244 2.254C22.9184 2.097 22.552 2.04519 22.1956 2.10575C21.8392 2.16631 21.5105 2.33625 21.255 2.592L2.38003 19.8C2.15102 20.0078 2.01394 20.2981 1.99893 20.6069C1.98393 20.9158 2.09224 21.218 2.30003 21.447C2.32503 21.474 2.35003 21.5 2.37703 21.524L3.91803 22.924C4.11939 23.1073 4.37859 23.2142 4.65059 23.2263C4.9226 23.2383 5.19024 23.1547 5.40703 22.99L28.142 5.75C28.3138 5.61969 28.5184 5.5399 28.7331 5.51962C28.9477 5.49933 29.1637 5.53935 29.3568 5.63517C29.5499 5.73099 29.7124 5.87881 29.826 6.06199C29.9397 6.24517 29.9999 6.45643 30 6.672V6.605C30 6.2759 29.9071 5.95349 29.7319 5.67486C29.5568 5.39624 29.3066 5.17271 29.01 5.03V5.03Z" fill="#0065A9"/>
<path d="M29.01 26.97L23.244 29.747C22.9183 29.9036 22.552 29.9551 22.1957 29.8946C21.8394 29.834 21.5107 29.6644 21.255 29.409L2.38003 12.2C2.15102 11.9922 2.01394 11.7019 1.99893 11.3931C1.98393 11.0842 2.09224 10.782 2.30003 10.553C2.32503 10.526 2.35003 10.5 2.37703 10.476L3.91803 9.076C4.1196 8.89196 4.37938 8.78454 4.65206 8.77248C4.92474 8.76042 5.193 8.84448 5.41003 9.01L28.142 26.25C28.3138 26.3803 28.5184 26.4601 28.7331 26.4804C28.9477 26.5007 29.1637 26.4606 29.3568 26.3648C29.5499 26.269 29.7124 26.1212 29.826 25.938C29.9397 25.7548 29.9999 25.5436 30 25.328V25.4C29.999 25.7282 29.9055 26.0495 29.7305 26.3272C29.5554 26.6048 29.3057 26.8276 29.01 26.97V26.97Z" fill="#007ACC"/>
<path d="M23.244 29.747C22.9183 29.9036 22.552 29.9551 22.1957 29.8946C21.8394 29.834 21.5107 29.6644 21.255 29.409C21.3986 29.5507 21.5808 29.6469 21.7789 29.6855C21.9769 29.7241 22.1819 29.7034 22.3683 29.626C22.5546 29.5486 22.7139 29.4179 22.8263 29.2504C22.9387 29.0828 22.9991 28.8858 23 28.684V3.316C23.0001 3.11329 22.9401 2.91509 22.8276 2.74651C22.715 2.57792 22.5549 2.44654 22.3676 2.36901C22.1803 2.29148 21.9742 2.27128 21.7755 2.31098C21.5767 2.35067 21.3941 2.44848 21.251 2.592C21.5065 2.33634 21.8352 2.16639 22.1915 2.10566C22.5478 2.04493 22.9142 2.09642 23.24 2.253L29.005 5.025C29.3025 5.167 29.5537 5.39022 29.7298 5.6689C29.9058 5.94758 29.9995 6.27037 30 6.6V25.4C30.0001 25.7294 29.9071 26.0521 29.7317 26.3309C29.5564 26.6097 29.3059 26.8334 29.009 26.976L23.244 29.747Z" fill="#1F9CF0"/>
</svg>
