<svg width="32" height="32" viewBox="0 0 32 32" fill="none" xmlns="http://www.w3.org/2000/svg">
<path d="M17.7347 7.468C16.8974 5.43067 17.0147 3.13867 18.224 1.29467L19.128 0C17.456 3.13333 19.048 6.98133 21.608 8.99867C22.2931 9.53481 23.0567 9.96206 23.872 10.2653C24.0907 10.3453 24.3387 10.4307 24.5654 10.488C27.4267 11.208 29.7587 10.7107 31.1467 8.636C31.104 8.7 31.0494 8.80133 30.98 8.92933C30.3614 10.076 28.5507 13.432 23.3 12.3787C23.2 12.3587 23.104 12.3253 23.008 12.2947L22.9227 12.2653L22.8614 12.2453C22.8331 12.2355 22.8046 12.2262 22.776 12.2173C22.6983 12.1906 22.6209 12.1626 22.544 12.1333C20.4307 11.328 18.6187 9.632 17.7347 7.468V7.468Z" fill="#33A9DC"/>
<path d="M10.8266 3.95467C8.77729 7.01467 8.88929 11.112 10.488 14.3493C10.7835 14.9517 11.1231 15.5315 11.504 16.084C11.7826 16.5013 12.0893 16.964 12.448 17.2867C12.596 17.456 12.7506 17.62 12.908 17.7813L12.9986 17.8747L13.0293 17.9053C13.1885 18.0663 13.3516 18.2232 13.5186 18.376L13.52 18.3773L13.5226 18.38C13.7242 18.5624 13.9309 18.7389 14.1426 18.9093L14.196 18.952C14.3826 19.1013 14.5733 19.248 14.7693 19.388L14.7773 19.3933L14.7866 19.4C14.8493 19.4453 14.9133 19.4893 14.9773 19.532L15.048 19.58C15.0898 19.6077 15.1311 19.6361 15.172 19.6653C15.312 19.7587 15.4533 19.848 15.5973 19.936L15.6373 19.9587L15.6573 19.972C15.8117 20.0641 15.9677 20.1534 16.1253 20.24L16.1666 20.2613L16.22 20.2907C16.2893 20.328 16.3586 20.3667 16.4306 20.4027L16.4706 20.4227C16.6769 20.5277 16.8858 20.6273 17.0973 20.7213L17.14 20.7387C17.3384 20.8261 17.5389 20.9088 17.7413 20.9867L17.7813 21.0013C17.9186 21.0547 18.056 21.1027 18.1946 21.1507L18.264 21.1747L18.3813 21.2133C18.4333 21.2293 18.4853 21.248 18.536 21.2653C18.6813 21.316 18.8266 21.3653 18.9786 21.392C29.5573 23.2107 32 14.7573 32 14.7573C29.7986 18.048 25.5346 19.6187 20.9853 18.392C20.7838 18.3369 20.5838 18.2769 20.3853 18.212C20.3316 18.1954 20.2782 18.1776 20.2253 18.1587L20.2053 18.152C20.0648 18.1049 19.9252 18.0551 19.7866 18.0027L19.7826 18C19.5525 17.9129 19.3249 17.8196 19.1 17.72L19.0253 17.6867C18.7631 17.5681 18.5052 17.4405 18.252 17.304L18.196 17.2747L18.036 17.1893C17.8899 17.1077 17.7454 17.0233 17.6026 16.936C17.3206 16.7638 17.0449 16.5814 16.776 16.3893C16.5818 16.2491 16.391 16.1042 16.204 15.9547L16.1573 15.916C16.13 15.8939 16.1029 15.8717 16.076 15.8493C14.084 14.2173 12.5053 11.9867 11.756 9.45867C10.9693 6.83467 11.1386 3.89067 12.5013 1.50133L10.8266 3.95467Z" fill="#33A9DC"/>
<path d="M2.03201 7.516C-0.799987 11.7427 -0.447987 17.2427 1.71601 21.7333C1.75601 21.82 1.80001 21.9053 1.84268 21.9893L1.87468 22.0533L1.91468 22.132C1.94822 22.2019 1.98379 22.2708 2.02135 22.3387L2.03868 22.372L2.13201 22.5453L2.15201 22.5813C2.21868 22.704 2.28801 22.8267 2.35868 22.9493L2.38135 22.9893C2.4882 23.1757 2.59979 23.3593 2.71601 23.54L2.74001 23.58L2.81868 23.704C2.93068 23.8773 3.04535 24.052 3.16535 24.224V24.2253C3.16819 24.2295 3.1713 24.2335 3.17468 24.2373L3.20668 24.2813L3.23335 24.3187C3.33735 24.4653 3.44268 24.612 3.55068 24.756L3.67068 24.9133C3.93203 25.252 4.20235 25.5837 4.48135 25.908L4.48935 25.9173L4.49601 25.924L4.50535 25.9347C4.78822 26.2533 5.0808 26.5633 5.38268 26.864L5.42268 26.904L5.51735 26.9973C5.66845 27.145 5.82225 27.2899 5.97868 27.432L6.02268 27.472L6.05735 27.5013C6.22422 27.6503 6.39312 27.797 6.56401 27.9413L6.63868 28.004C6.75201 28.0973 6.86668 28.1907 6.98268 28.2813L7.16535 28.4267C7.29335 28.524 7.42135 28.62 7.55068 28.7133L7.57201 28.7293L7.69201 28.8173L7.72935 28.844C7.84668 28.9293 7.96535 29.0093 8.08535 29.0893L8.10401 29.1027C8.15782 29.1389 8.21116 29.1758 8.26401 29.2133C8.4866 29.3594 8.71197 29.5012 8.94001 29.6387L9.01201 29.6813C9.2139 29.8006 9.41793 29.9162 9.62401 30.028L9.69468 30.0667L9.77335 30.1093C9.85201 30.152 9.92935 30.1947 10.0093 30.236L10.0427 30.252L10.0827 30.272L10.128 30.2947C10.1547 30.308 10.1827 30.3213 10.2107 30.3373C10.376 30.4187 10.5413 30.4987 10.7093 30.5773L10.772 30.6053L10.8147 30.6253C11.2313 30.8151 11.6552 30.9885 12.0853 31.1453L12.0987 31.1493L12.1547 31.1707C12.4586 31.28 12.7654 31.3814 13.0747 31.4747C13.2293 31.5267 13.3853 31.5773 13.5453 31.608C27.248 34.2027 31.228 23.0613 31.228 23.0613C27.8853 27.5813 21.952 28.7747 16.3293 27.4467C16.1178 27.3953 15.9087 27.3344 15.7027 27.264L15.5453 27.2147C15.3427 27.1507 15.1413 27.0813 14.9413 27.0107L14.8587 26.98C14.6787 26.9133 14.5027 26.8467 14.3253 26.7747L14.176 26.7133C13.9829 26.6342 13.7914 26.5515 13.6013 26.4653L13.54 26.4387C13.3593 26.3548 13.1798 26.2685 13.0013 26.18L12.9467 26.1507C12.9181 26.1371 12.8897 26.1233 12.8613 26.1093L12.576 25.9587L12.4853 25.9107C12.4557 25.8945 12.4259 25.8785 12.396 25.8627L12.236 25.7747C12.084 25.6907 11.9347 25.6013 11.7853 25.512L11.728 25.4787L11.6347 25.4253C11.4026 25.2821 11.1732 25.1346 10.9467 24.9827L10.8893 24.9427C10.3203 24.5633 9.77485 24.1496 9.25601 23.704C9.09749 23.57 8.94103 23.4335 8.78668 23.2947L8.76535 23.2747C8.56266 23.0882 8.36352 22.898 8.16801 22.704C8.0551 22.5924 7.94397 22.4791 7.83468 22.364L7.78935 22.3187C7.61666 22.1382 7.44773 21.9542 7.28268 21.7667L7.27468 21.7587L7.27201 21.7547C7.13068 21.5947 6.99201 21.4293 6.85601 21.264L6.74668 21.1293C6.6071 20.9562 6.47064 20.7807 6.33735 20.6027C6.22001 20.4427 6.10401 20.2853 5.99068 20.124C2.87068 15.7053 1.74935 9.60933 4.24401 4.604L2.03201 7.516Z" fill="#33A9DC"/>
</svg>
